<?xml version="1.0" encoding="UTF-8"?>
<svg id="Layer_1" data-name="Layer 1" xmlns="http://www.w3.org/2000/svg" viewBox="0 0 392.07 392.07">
  <defs>
    <style>
      .cls-1 {
        fill: #e7e5dc;
      }

      .cls-2 {
        fill: #393c3e;
      }

      .cls-3 {
        fill: #af5441;
      }
    </style>
  </defs>
  <circle class="cls-1" cx="196.03" cy="196.03" r="196.03"/>
  <g>
    <path class="cls-2" d="M336.74,173.1H55.28c-.97,0-1.77.78-1.79,1.75v15.23c.02.97.82,1.75,1.79,1.75h35.35c-3.87,6.07-4.48,12.14-3.09,18.5,1.49,6.75,5.84,11.27,11.82,14.62-1.5,1.2-2.84,2.23-4.11,3.3-1.96,1.72-3.61,3.75-4.91,6.01-6.99,13.75-1.84,30.57,11.65,38.05,11.39,6.51,23.73,7.62,36.43,6.06,25.88-3.17,45.61-22.22,45.17-50.65-.13-8.51-2.01-16.85-9.05-22.02-4.25-3.11-5.01-6.27-4.61-10.64.06-.56.06-1.12,0-1.68-.12-.54-.01-1.1.29-1.56h27.78c.15,1.04.19,2.1.12,3.15v80.82c0,1.79.25,2.44,2.27,2.37,5.05-.2,10.12-.17,15.17-.04,2.05.05,2.84-.24,2.82-2.69-.13-27.03-.06-54.06-.14-81.1-.1-.88.08-1.76.52-2.53h15.23c.38.66.54,1.43.46,2.2-.11,9.26-.06,18.52,0,27.78,0,8.78,2.27,16.67,9.34,22.51,9.28,7.66,24,8.96,34.89,3.27,3.43-1.79,2.42-1.23,2.69,5.11v23.53c0,1.54,1.25,2.79,2.79,2.8h15.72c1.54,0,2.8-1.25,2.8-2.8v-84.37h34.16c.97,0,1.77-.78,1.79-1.75v-15.23c-.03-.99-.85-1.77-1.84-1.74,0,0,0,0,0,0ZM152.69,255.39c-9.95,7.7-21.07,9.71-33.03,5.93-9.6-3.04-14.15-12.73-10.38-21.12,2.43-5.44,6.95-7.5,12.54-7.86,1.03-.09,2.06-.09,3.08,0,.91.08,1.71-.59,1.79-1.5,0-.07,0-.14,0-.21-.04-4.11-.07-8.23.05-12.35.06-1.79-.99-1.75-2.14-1.6-3.07.42-6.19.11-9.12-.9-5.69-1.94-8.62-6.52-8.27-13.08.26-5.18,3.85-9.59,8.87-10.9h33.61c.33.54.48,1.16.43,1.79.14,4.61.06,8.06-5.46,10.69-9.33,4.48-12.78,16.6-9.28,27.93,2.69,8.79,11.57,16.54,22.02,15.74.47,0,.94.04,1.41.11-1.43,2.89-3.53,5.4-6.13,7.32ZM165.24,226.34c-.2,1.79-.34,3.52-.59,5.28-.58,4.03-2.81,5.38-6.74,4.09-1.71-.51-3.2-1.56-4.26-2.99-2.97-4.02-2.93-11.54.12-15.55,2.53-3.31,6.78-3.28,9.17.11,1.9,2.72,2.38,5.81,2.29,9.07h.02ZM281.13,215.44c0,1.66,0,5.81-.15,7.46-.45,6.6-4.78,9.98-9.56,10.94-9.9,1.99-16.31-3.09-16.51-13.19-.2-9.15-.04-18.31-.13-27.47-.04-.46.06-.92.28-1.33h25.89c.21.49.29,1.02.23,1.54-.12,7.3.04,14.65-.05,22.04Z"/>
    <path class="cls-3" d="M195.87,13.29c-18.17-.17-33.57,14.91-33.66,33.02-.11,18.99,13.29,34.34,34.23,34.62,17.92.25,33.15-15.23,33.25-33.55.21-18.61-14.7-33.88-33.32-34.09-.17,0-.33,0-.5,0ZM195.82,77.38c-15.61-.3-30.57-12.54-30.26-30.81.25-16.13,14.08-29.69,30.46-29.63,16.62.02,30.08,13.52,30.05,30.14,0,.04,0,.08,0,.13-.21,16.92-13.6,30.26-30.26,30.18Z"/>
    <path class="cls-3" d="M196.24,19.1c-15.63,0-28.4,12.14-28.52,27.61-.14,14.7,11.69,28.67,28.02,28.43,15.63.13,28.32-12.05,28.27-27.78-.05-15.39-11.86-28.14-27.77-28.26ZM196.18,71.54c-13.61.25-24.36-10.35-24.66-24.25-.15-13.54,10.7-24.64,24.24-24.8,12.84-.22,24.25,10.88,24.52,23.82.28,14.01-10.21,25-24.1,25.23Z"/>
    <path class="cls-3" d="M195.79,24.68c-11.93-.14-22.03,10.06-22.14,21.92-.13,12.8,9.59,22.8,22.27,22.8,12.34.21,22.52-9.63,22.73-21.97.21-12.34-9.63-22.52-21.97-22.73-.3,0-.59,0-.89,0v-.02ZM213.71,41.14c-.79,1.1-1.89,1.93-3.16,2.4-1.97.65-3.75.6-3.98-.08s1.2-1.79,3.17-2.41c1.29-.36,2.66-.33,3.93.09h.04ZM214.68,46.9c-1.09.79-2.4,1.25-3.75,1.3-2.08,0-3.76-.58-3.76-1.3s1.68-1.32,3.76-1.32c1.34.06,2.63.52,3.71,1.32h.04ZM210.97,35.97c-.42,1.29-1.2,2.43-2.27,3.27-1.68,1.22-3.39,1.74-3.81,1.15s.59-2.04,2.27-3.26c1.13-.75,2.45-1.15,3.81-1.16ZM206.39,47.11c0,5.73-4.65,10.38-10.38,10.38s-10.38-4.65-10.38-10.38,4.65-10.38,10.38-10.38c5.73,0,10.37,4.65,10.38,10.38ZM203.53,34.16c.83-1.05,1.96-1.84,3.23-2.27,0,1.36-.4,2.68-1.15,3.81-1.22,1.68-2.69,2.69-3.26,2.28s-.07-2.13,1.17-3.82ZM199.16,32.48c.47-1.27,1.31-2.37,2.41-3.16.42,1.29.45,2.67.09,3.98-.65,1.96-1.72,3.39-2.41,3.16s-.73-2.01-.09-3.98ZM195.8,28.48c.8,1.09,1.25,2.39,1.31,3.75,0,2.08-.58,3.75-1.31,3.75s-1.31-1.68-1.31-3.75c.05-1.35.51-2.65,1.31-3.75ZM190.05,29.45c1.1.81,1.93,1.92,2.38,3.21.65,1.96.61,3.75-.08,3.96s-1.79-1.18-2.4-3.16c-.37-1.31-.34-2.71.1-4.01ZM184.88,32.14c1.29.43,2.43,1.23,3.26,2.31,1.22,1.68,1.74,3.39,1.15,3.81s-2.04-.59-3.26-2.27c-.76-1.13-1.16-2.47-1.15-3.83v-.02ZM184.62,37.46c1.67,1.22,2.69,2.69,2.27,3.26s-2.12.07-3.81-1.15c-1.07-.83-1.86-1.96-2.29-3.24,1.36,0,2.7.39,3.83,1.15v-.02ZM182.2,41.45c1.97.65,3.39,1.72,3.16,2.41-.22.69-2,.73-3.97.09-1.27-.47-2.38-1.31-3.17-2.41,1.29-.42,2.67-.44,3.98-.07v-.02ZM181.13,46c2.07,0,3.75.58,3.75,1.31s-1.68,1.31-3.75,1.31c-1.35-.05-2.66-.51-3.75-1.31,1.1-.79,2.4-1.24,3.75-1.29v-.02ZM178.36,53.06c.79-1.1,1.89-1.93,3.16-2.4,1.96-.65,3.75-.61,3.97.08s-1.19,1.79-3.17,2.41c-1.3.37-2.68.34-3.96-.07v-.02ZM181.05,58.22c.42-1.29,1.21-2.42,2.28-3.26,1.67-1.22,3.38-1.74,3.81-1.15s-.6,2.04-2.27,3.26c-1.13.76-2.45,1.16-3.81,1.16v-.02ZM188.49,60.01c-.83,1.07-1.95,1.87-3.23,2.31,0-1.36.4-2.68,1.15-3.81,1.22-1.68,2.69-2.69,3.26-2.28s.07,2.13-1.17,3.81v-.04ZM192.86,61.71c-.46,1.28-1.29,2.4-2.39,3.21-.42-1.29-.45-2.67-.09-3.98.65-1.96,1.72-3.39,2.41-3.16s.72,1.99.08,3.97v-.04ZM196.22,65.71c-.79-1.1-1.25-2.4-1.3-3.75,0-2.07.58-3.75,1.3-3.75s1.32,1.68,1.32,3.75c-.04,1.37-.5,2.69-1.31,3.79v-.04ZM201.97,64.74c-1.08-.79-1.91-1.88-2.37-3.14-.65-1.96-.61-3.75.08-3.97s1.79,1.19,2.41,3.17c.36,1.3.32,2.69-.11,3.97v-.04ZM207.13,62.05c-1.29-.42-2.42-1.21-3.26-2.27-1.22-1.68-1.73-3.39-1.15-3.82s2.04.6,3.26,2.28c.76,1.13,1.16,2.46,1.16,3.83v-.02ZM207.41,56.73c-1.68-1.22-2.69-2.69-2.28-3.26s2.13-.07,3.82,1.15c1.07.84,1.87,1.98,2.29,3.28-1.36,0-2.69-.39-3.83-1.15v-.02ZM209.82,52.73c-1.96-.65-3.39-1.71-3.16-2.4s2-.73,3.98-.09c1.27.47,2.37,1.31,3.16,2.41-1.28.42-2.67.46-3.97.1v-.02Z"/>
    <path class="cls-3" d="M228.56,134.43c-.44-.82-.44-2.24-.37-4.66.11-2.99-.73-4.95-3.58-6.16-2.83-1.34-5.1-3.65-6.38-6.51-3.26-6.68-3.14-13.56-1.12-20.61,2.63-9.12,8.06-16.67,13.4-24.27,11.33-16.03,10.15-39.17-2.81-53.36-12.78-13.99-32.79-18.35-49.91-10.03-15.55,7.55-23.73,20.32-24.38,37.83-.42,10.75,3.83,19.66,9.7,28.25,5.56,8.15,11.34,16.37,12.49,26.58.96,8.28.34,16.47-7.54,21.41-3.39,2.1-5.18,4.11-4.53,8.06.31,1.16.14,2.4-.47,3.43h-75.86c-18.58,0-33.64,15.08-33.64,33.66h284.94c0-18.58-15.07-33.64-33.65-33.64h-76.28ZM195.82,83.18c-18.91-.11-36.74-16.66-35.94-37.34.87-19.75,17.38-35.17,37.14-34.68,19.34.34,34.94,16.84,34.69,36.6-.23,19.65-16.24,35.46-35.89,35.43h0Z"/>
    <path class="cls-3" d="M57.51,304.09c1.25-2.3,3.11-4.22,5.38-5.53,2.3-1.34,4.92-2.02,7.58-1.99,3.09-.09,6.13.75,8.74,2.42,2.45,1.64,4.31,4.04,5.3,6.82h-3.58c-.81-1.98-2.2-3.67-4-4.84-3.85-2.25-8.59-2.32-12.5-.17-1.8,1.06-3.26,2.62-4.21,4.48-1.05,2.12-1.57,4.46-1.52,6.82-.05,2.36.47,4.69,1.52,6.8.95,1.87,2.41,3.42,4.21,4.48,3.9,2.14,8.65,2.09,12.5-.15,1.78-1.14,3.18-2.8,4-4.75h3.58c-.99,2.76-2.86,5.13-5.31,6.75-2.6,1.65-5.64,2.48-8.72,2.4-2.66.04-5.29-.65-7.6-1.98-2.26-1.31-4.12-3.22-5.38-5.52-1.34-2.46-2.01-5.22-1.96-8.02-.04-2.8.65-5.56,1.98-8.02Z"/>
    <path class="cls-3" d="M115.46,327.39l-7.54-12.72h-5.63v12.72h-3.06v-30.46h9.15c3.4,0,5.98.82,7.74,2.45,1.77,1.65,2.73,3.98,2.63,6.4.06,2.05-.62,4.05-1.9,5.64-1.44,1.66-3.43,2.73-5.6,3.03l7.85,12.95h-3.66ZM102.3,312.21h6.15c2.38,0,4.18-.57,5.38-1.74,1.23-1.24,1.88-2.93,1.79-4.67.1-1.73-.56-3.42-1.79-4.63-1.16-1.09-3-1.64-5.49-1.64h-6.03v12.68Z"/>
    <path class="cls-3" d="M136.6,299.4v11.38h11.55v2.53h-11.55v11.55h12.82v2.53h-15.87v-30.51h15.87v2.53h-12.82Z"/>
    <path class="cls-3" d="M181.83,320.15h-13.85l-2.69,7.24h-3.23l11.11-30.07h3.45l11.07,30.07h-3.23l-2.63-7.24ZM180.93,317.62l-6.01-16.47-6.03,16.43,12.04.04Z"/>
    <path class="cls-3" d="M219.14,296.92v2.53h-8.46v27.94h-3.02v-27.94h-8.5v-2.53h19.98Z"/>
    <path class="cls-3" d="M235.74,296.92v30.46h-3.06v-30.46h3.06Z"/>
    <path class="cls-3" d="M275.52,296.92l-11.55,30.46h-3.45l-11.55-30.46h3.32l9.98,27.15,10.06-27.15h3.19Z"/>
    <path class="cls-3" d="M291.88,299.4v11.38h11.55v2.53h-11.55v11.55h12.85v2.53h-15.92v-30.51h15.9v2.53h-12.83Z"/>
    <path class="cls-3" d="M323.4,326.64c-1.44-.63-2.68-1.64-3.58-2.92-.86-1.23-1.35-2.68-1.39-4.18h3.23c.15,1.5.85,2.89,1.95,3.91,2.96,2.2,7.01,2.24,10.01.08,1.17-1.01,1.83-2.49,1.79-4.03.05-1.14-.3-2.25-.99-3.15-.67-.8-1.52-1.41-2.49-1.79-1.34-.5-2.71-.93-4.09-1.28-1.65-.43-3.26-.96-4.84-1.61-1.21-.54-2.26-1.38-3.05-2.44-.9-1.31-1.35-2.89-1.26-4.48-.02-1.49.4-2.96,1.22-4.21.86-1.26,2.05-2.27,3.44-2.89,1.6-.72,3.34-1.08,5.1-1.05,2.44-.12,4.85.61,6.82,2.07,1.69,1.31,2.77,3.25,2.99,5.38h-3.35c-.25-1.32-.98-2.51-2.05-3.33-2.78-1.96-6.5-1.96-9.28,0-1.2.97-1.86,2.45-1.79,3.99-.06,1.12.3,2.22,1,3.09.68.79,1.54,1.41,2.51,1.79,1.33.51,2.69.95,4.07,1.31,1.63.43,3.24.97,4.79,1.63,1.23.54,2.3,1.39,3.1,2.46.91,1.31,1.35,2.89,1.26,4.48,0,1.43-.39,2.83-1.14,4.05-.82,1.31-1.98,2.36-3.37,3.05-1.65.82-3.48,1.22-5.32,1.17-1.82.03-3.62-.34-5.28-1.08Z"/>
  </g>
</svg>