<?xml version="1.0" encoding="UTF-8"?>
<svg id="Layer_1" data-name="Layer 1" xmlns="http://www.w3.org/2000/svg" viewBox="0 0 318.19 360.59">
  <defs>
    <style>
      .cls-1 {
        fill: #393c3e;
      }

      .cls-2 {
        fill: #af5441;
      }
    </style>
  </defs>
  <path class="cls-1" d="M316.13,188.02H2c-1.09,0-1.97.87-2,1.95v17c.03,1.08.91,1.95,2,1.95h39.45c-4.32,6.78-5,13.55-3.45,20.65,1.66,7.53,6.52,12.58,13.19,16.32-1.67,1.34-3.17,2.49-4.59,3.68-2.18,1.92-4.03,4.19-5.48,6.71-7.8,15.35-2.05,34.11,13,42.47,12.71,7.27,26.48,8.5,40.66,6.76,28.88-3.54,50.91-24.8,50.41-56.53-.15-9.5-2.24-18.81-10.1-24.58-4.74-3.47-5.59-7-5.15-11.87.07-.62.07-1.26,0-1.88-.13-.6-.02-1.23.32-1.74h31c.17,1.16.22,2.35.13,3.52v90.2c0,2,.28,2.72,2.53,2.64,5.64-.22,11.29-.19,16.93-.05,2.29.06,3.17-.27,3.15-3-.14-30.17-.07-60.34-.16-90.51-.11-.98.09-1.97.58-2.82h17c.43.74.61,1.6.51,2.45-.12,10.33-.07,20.67,0,31,0,9.8,2.53,18.61,10.42,25.12,10.36,8.55,26.79,10,38.94,3.65,3.83-2,2.7-1.37,3,5.7v26.26c0,1.72,1.39,3.11,3.11,3.12h17.54c1.72,0,3.12-1.4,3.12-3.12v-94.16h38.13c1.09,0,1.97-.87,2-1.95v-17c-.03-1.1-.95-1.97-2.06-1.94,0,0,0,0,0,0ZM110.72,279.87c-11.1,8.59-23.52,10.84-36.86,6.62-10.71-3.39-15.79-14.21-11.59-23.57,2.71-6.07,7.76-8.37,14-8.77,1.14-.09,2.3-.09,3.44,0,1.01.09,1.91-.66,1.99-1.67,0-.08,0-.16,0-.24-.05-4.59-.08-9.18.06-13.78.07-2-1.11-1.95-2.39-1.79-3.42.47-6.91.12-10.18-1-6.35-2.17-9.62-7.28-9.23-14.6.29-5.78,4.3-10.7,9.9-12.16h37.51c.37.6.54,1.3.48,2,.16,5.14.07,9-6.09,11.93-10.41,5-14.26,18.53-10.36,31.17,3,9.81,12.91,18.46,24.58,17.57.53,0,1.05.05,1.57.12-1.6,3.23-3.94,6.03-6.84,8.17ZM124.72,247.44c-.22,2-.38,3.93-.66,5.89-.65,4.5-3.14,6-7.52,4.57-1.9-.57-3.57-1.74-4.76-3.34-3.31-4.49-3.27-12.88.13-17.36,2.82-3.69,7.57-3.66,10.23.12,2.12,3.04,2.66,6.49,2.56,10.12h.02ZM254.07,235.28c0,1.85,0,6.48-.17,8.33-.5,7.37-5.34,11.14-10.67,12.21-11.05,2.22-18.2-3.45-18.43-14.72-.22-10.21-.05-20.44-.14-30.66-.04-.51.07-1.03.31-1.48h28.9c.23.54.32,1.13.26,1.72-.13,8.15.05,16.35-.06,24.6Z"/>
  <path class="cls-2" d="M158.91,9.66c-20.28-.19-37.47,16.64-37.57,36.85-.12,21.2,14.83,38.33,38.2,38.64,20,.28,37-17,37.11-37.44.24-20.78-16.41-37.81-37.19-38.05-.18,0-.37,0-.55,0ZM158.86,81.19c-17.42-.34-34.12-14-33.77-34.39.28-18,15.72-33.14,34-33.07,18.55.03,33.57,15.09,33.54,33.64,0,.05,0,.09,0,.14-.23,18.88-15.18,33.77-33.77,33.68Z"/>
  <path class="cls-2" d="M159.32,16.15c-17.44,0-31.7,13.55-31.83,30.81-.16,16.41,13.05,32,31.27,31.73,17.44.15,31.61-13.45,31.55-31-.06-17.18-13.24-31.41-30.99-31.54ZM159.26,74.67c-15.19.28-27.19-11.55-27.52-27.06-.17-15.11,11.94-27.5,27.05-27.68,14.33-.25,27.06,12.14,27.37,26.58.31,15.64-11.4,27.9-26.9,28.16Z"/>
  <path class="cls-2" d="M158.82,22.37c-13.32-.16-24.59,11.23-24.71,24.46-.15,14.29,10.7,25.45,24.85,25.45,13.78.23,25.14-10.74,25.37-24.52.23-13.78-10.74-25.14-24.52-25.37-.33,0-.66,0-.99,0v-.02ZM178.82,40.75c-.88,1.23-2.11,2.16-3.53,2.68-2.2.72-4.19.67-4.44-.09s1.34-2,3.54-2.69c1.44-.4,2.97-.36,4.39.1h.04ZM179.91,47.17c-1.22.89-2.67,1.39-4.18,1.45-2.32,0-4.2-.65-4.2-1.45s1.88-1.47,4.2-1.47c1.49.07,2.94.58,4.14,1.47h.04ZM175.76,34.98c-.46,1.44-1.34,2.71-2.53,3.65-1.87,1.36-3.78,1.94-4.25,1.28s.66-2.28,2.53-3.64c1.26-.84,2.74-1.29,4.25-1.29ZM170.65,47.41c0,6.4-5.18,11.58-11.58,11.58s-11.58-5.18-11.58-11.58,5.18-11.58,11.58-11.58c6.39,0,11.57,5.19,11.58,11.58ZM167.46,32.96c.93-1.18,2.19-2.06,3.61-2.53,0,1.51-.44,2.99-1.28,4.25-1.36,1.87-3,3-3.64,2.54s-.08-2.38,1.31-4.26ZM162.58,31.08c.53-1.42,1.46-2.65,2.69-3.53.47,1.44.51,2.98.1,4.44-.72,2.19-1.92,3.78-2.69,3.53s-.81-2.24-.1-4.44ZM158.83,26.61c.89,1.22,1.4,2.67,1.46,4.18,0,2.32-.65,4.19-1.46,4.19s-1.46-1.87-1.46-4.19c.06-1.51.57-2.96,1.46-4.18ZM152.41,27.7c1.23.9,2.15,2.15,2.66,3.58.72,2.19.68,4.18-.09,4.42s-2-1.32-2.68-3.53c-.41-1.47-.37-3.02.11-4.47ZM146.65,30.7c1.44.48,2.71,1.38,3.64,2.58,1.36,1.87,1.94,3.78,1.28,4.25s-2.28-.66-3.64-2.53c-.84-1.27-1.29-2.76-1.28-4.28v-.02ZM146.35,36.64c1.86,1.36,3,3,2.53,3.64s-2.37.08-4.25-1.28c-1.19-.93-2.08-2.19-2.56-3.62,1.52,0,3.01.44,4.28,1.28v-.02ZM143.65,41.09c2.2.72,3.78,1.92,3.53,2.69-.25.77-2.23.81-4.43.1-1.42-.53-2.65-1.46-3.54-2.69,1.44-.46,2.98-.49,4.44-.08v-.02ZM142.46,46.17c2.31,0,4.19.65,4.19,1.46s-1.88,1.46-4.19,1.46c-1.51-.06-2.97-.57-4.19-1.46,1.22-.88,2.68-1.39,4.19-1.44v-.02ZM139.37,54.05c.88-1.23,2.11-2.16,3.53-2.68,2.19-.72,4.18-.68,4.43.09s-1.33,2-3.54,2.69c-1.45.41-2.99.38-4.42-.08v-.02ZM142.37,59.81c.47-1.44,1.35-2.71,2.54-3.64,1.86-1.36,3.77-1.94,4.25-1.28s-.67,2.28-2.53,3.64c-1.26.84-2.74,1.3-4.25,1.3v-.02ZM150.67,61.81c-.92,1.19-2.17,2.09-3.6,2.58,0-1.51.44-2.99,1.28-4.25,1.36-1.88,3-3,3.64-2.54s.08,2.38-1.31,4.25v-.04ZM155.55,63.7c-.51,1.43-1.44,2.68-2.67,3.58-.47-1.44-.51-2.98-.1-4.44.72-2.19,1.92-3.78,2.69-3.53s.8,2.22.09,4.43v-.04ZM159.3,68.17c-.89-1.22-1.39-2.68-1.45-4.19,0-2.31.65-4.19,1.45-4.19s1.47,1.88,1.47,4.19c-.05,1.52-.56,3-1.46,4.23v-.04ZM165.72,67.08c-1.21-.88-2.13-2.1-2.65-3.5-.72-2.19-.68-4.18.09-4.43s2,1.33,2.69,3.54c.4,1.46.36,3-.12,4.43v-.04ZM171.48,64.08c-1.43-.47-2.7-1.35-3.64-2.53-1.36-1.88-1.93-3.78-1.28-4.26s2.28.67,3.64,2.54c.85,1.26,1.3,2.75,1.29,4.27v-.02ZM171.79,58.14c-1.87-1.36-3-3-2.54-3.64s2.38-.08,4.26,1.28c1.2.94,2.09,2.21,2.56,3.66-1.52,0-3.01-.44-4.27-1.28v-.02ZM174.48,53.68c-2.19-.72-3.78-1.91-3.53-2.68s2.23-.81,4.44-.1c1.42.53,2.65,1.46,3.53,2.69-1.43.47-2.97.51-4.43.11v-.02Z"/>
  <path class="cls-2" d="M195.4,144.87c-.49-.92-.49-2.5-.41-5.2.12-3.34-.81-5.52-4-6.87-3.16-1.5-5.69-4.08-7.12-7.27-3.64-7.45-3.5-15.13-1.25-23,2.93-10.18,9-18.6,14.95-27.09,12.64-17.89,11.33-43.72-3.14-59.55-14.26-15.61-36.6-20.48-55.7-11.19-17.36,8.43-26.49,22.68-27.21,42.22-.47,12,4.27,21.94,10.83,31.53,6.2,9.1,12.66,18.27,13.94,29.67,1.07,9.24.38,18.38-8.42,23.9-3.78,2.34-5.78,4.59-5.06,9,.34,1.3.15,2.68-.53,3.83H37.61c-20.74.01-37.55,16.83-37.54,37.57h318.02c0-20.74-16.82-37.55-37.56-37.55h-85.13ZM158.86,87.67c-21.1-.12-41-18.59-40.11-41.68.97-22.04,19.4-39.25,41.45-38.71,21.58.38,39,18.79,38.72,40.85-.25,21.93-18.12,39.57-40.06,39.54h0Z"/>
  <path class="cls-2" d="M4.49,334.22c1.39-2.57,3.47-4.71,6-6.17,2.57-1.49,5.49-2.26,8.46-2.22,3.45-.1,6.84.84,9.75,2.7,2.74,1.84,4.81,4.5,5.91,7.61h-4c-.9-2.21-2.46-4.1-4.46-5.4-4.29-2.52-9.59-2.59-13.95-.19-2.01,1.18-3.64,2.92-4.7,5-1.17,2.36-1.75,4.97-1.7,7.61-.06,2.63.53,5.24,1.7,7.59,1.06,2.08,2.69,3.82,4.7,5,4.36,2.39,9.65,2.33,13.95-.17,1.99-1.27,3.55-3.12,4.46-5.3h4c-1.11,3.09-3.19,5.73-5.93,7.53-2.91,1.84-6.29,2.77-9.73,2.68-2.97.04-5.9-.72-8.48-2.21-2.52-1.47-4.6-3.6-6-6.16-1.49-2.74-2.25-5.83-2.19-8.95-.04-3.12.72-6.2,2.21-8.95Z"/>
  <path class="cls-2" d="M69.17,360.22l-8.41-14.2h-6.28v14.2h-3.41v-34h10.21c3.8,0,6.67.91,8.64,2.73,1.97,1.84,3.05,4.45,2.94,7.14.06,2.28-.69,4.52-2.12,6.3-1.6,1.85-3.83,3.05-6.25,3.38l8.76,14.45h-4.08ZM54.48,343.28h6.86c2.66,0,4.66-.64,6-1.94,1.37-1.38,2.09-3.27,2-5.21.11-1.93-.62-3.81-2-5.17-1.3-1.22-3.34-1.83-6.13-1.83h-6.73v14.15Z"/>
  <path class="cls-2" d="M92.76,328.99v12.7h12.89v2.82h-12.89v12.89h14.31v2.82h-17.71v-34.05h17.71v2.82h-14.31Z"/>
  <path class="cls-2" d="M143.24,352.14h-15.46l-3,8.08h-3.6l12.4-33.56h3.85l12.35,33.56h-3.6l-2.94-8.08ZM142.24,349.32l-6.71-18.38-6.73,18.34,13.44.04Z"/>
  <path class="cls-2" d="M184.88,326.22v2.82h-9.44v31.18h-3.37v-31.18h-9.49v-2.82h22.3Z"/>
  <path class="cls-2" d="M203.41,326.22v34h-3.41v-34h3.41Z"/>
  <path class="cls-2" d="M247.81,326.22l-12.89,34h-3.85l-12.89-34h3.7l11.14,30.3,11.23-30.3h3.56Z"/>
  <path class="cls-2" d="M266.07,328.99v12.7h12.89v2.82h-12.89v12.89h14.34v2.82h-17.77v-34.05h17.75v2.82h-14.32Z"/>
  <path class="cls-2" d="M301.24,359.39c-1.6-.7-2.99-1.83-4-3.26-.96-1.37-1.5-2.99-1.55-4.67h3.6c.17,1.67.94,3.22,2.18,4.36,3.31,2.46,7.82,2.5,11.17.09,1.31-1.12,2.04-2.78,2-4.5.06-1.27-.33-2.52-1.11-3.52-.74-.89-1.7-1.58-2.78-2-1.5-.56-3.02-1.04-4.57-1.43-1.84-.47-3.64-1.08-5.4-1.8-1.35-.6-2.52-1.54-3.4-2.72-1.01-1.47-1.5-3.22-1.41-5-.03-1.67.45-3.3,1.36-4.7.96-1.41,2.29-2.53,3.84-3.23,1.79-.81,3.73-1.21,5.69-1.17,2.73-.13,5.42.68,7.61,2.31,1.89,1.46,3.09,3.63,3.34,6h-3.74c-.28-1.48-1.1-2.8-2.29-3.72-3.11-2.19-7.25-2.19-10.36,0-1.34,1.08-2.08,2.73-2,4.45-.06,1.25.34,2.48,1.12,3.45.76.89,1.72,1.57,2.8,2,1.48.57,3,1.06,4.54,1.46,1.82.48,3.61,1.09,5.35,1.82,1.37.6,2.56,1.55,3.46,2.75,1.01,1.46,1.51,3.22,1.41,5,0,1.59-.44,3.16-1.27,4.52-.91,1.46-2.21,2.64-3.76,3.4-1.84.91-3.88,1.36-5.94,1.31-2.03.03-4.04-.38-5.89-1.2Z"/>
</svg>